# xmcd
#
# Track frame offsets:
#	150
#	1200
#	12820
#	24167
#	36165
#	47520
#	58836
#
# Disc length: 904 seconds
#
# Revision: 0
# Processed by: cddbd v1.4PL0 Copyright (c) Steve Scherf et al.
# Submitted via: dBpowerAMP V4.0
#
DISCID=45038607
DTITLE=Connected Peoples - Otsad Kokku 2002
DYEAR=2002
DGENRE=Rap
TTITLE0=Selgitus (Otsad Kokku 2002)
TTITLE1=Otsad kokku 2002 (Tänava)
TTITLE2=Otsad kokku 2002 (Raadio)
TTITLE3=Otsad kokku 2002 (Räpi ise)
TTITLE4=Otsad kokku 2002 (JARXi nägemus loost)
TTITLE5=Otsad kokku 2002 (JARXi and Overdozi räpi ise)
TTITLE6=Otsad kokku 2001 (Eriti tänava variant)
EXTD=
EXTT0=
EXTT1=
EXTT2=
EXTT3=
EXTT4=
EXTT5=
EXTT6=
PLAYORDER=
